<svg width="599" height="40" viewBox="0 0 599 40" fill="none" xmlns="http://www.w3.org/2000/svg">
<path d="M0 27.776C0 19.9253 4.69333 10.6667 14.08 0L20.096 3.712C15.6587 10.5387 13.184 15.744 12.672 19.328L20.224 23.936C20.224 26.9227 19.4987 29.8667 18.048 32.768C16.6827 35.6693 15.2747 37.9307 13.824 39.552C9.04533 39.552 5.248 38.272 2.432 35.712C0.810667 34.2613 0 31.616 0 27.776ZM24.96 27.776C24.96 19.9253 29.6533 10.6667 39.04 0L45.056 3.712C40.6187 10.5387 38.144 15.744 37.632 19.328L45.184 23.936C45.184 26.9227 44.4587 29.8667 43.008 32.768C41.6427 35.6693 40.2347 37.9307 38.784 39.552C34.0053 39.552 30.208 38.272 27.392 35.712C25.7707 34.2613 24.96 31.616 24.96 27.776Z" fill="white"/>
</svg>
