<svg width="18" height="15" viewBox="0 0 18 15" fill="none" xmlns="http://www.w3.org/2000/svg">
<path d="M16.1683 3.62818C16.1683 3.80431 16.1683 3.94521 16.1683 4.12133C16.1683 9.01761 12.4697 14.6184 5.67123 14.6184C3.55773 14.6184 1.62035 14.0196 0 12.9628C0.2818 12.998 0.563601 13.0333 0.880626 13.0333C2.60665 13.0333 4.19178 12.4344 5.45988 11.4481C3.83953 11.4129 2.46575 10.3562 2.00783 8.87671C2.2544 8.91194 2.46575 8.94716 2.71233 8.94716C3.02935 8.94716 3.3816 8.87671 3.66341 8.80626C1.9726 8.45401 0.704501 6.97456 0.704501 5.17808V5.14286C1.19765 5.42466 1.79648 5.56556 2.3953 5.60078C1.37378 4.93151 0.739726 3.80431 0.739726 2.5362C0.739726 1.8317 0.915851 1.19765 1.23288 0.669276C3.06458 2.88845 5.81213 4.36791 8.87671 4.54403C8.80626 4.26223 8.77104 3.98043 8.77104 3.69863C8.77104 1.65558 10.4266 0 12.4697 0C13.5264 0 14.4775 0.422701 15.182 1.16243C15.9922 0.986301 16.8023 0.669276 17.5068 0.246575C17.225 1.1272 16.6614 1.8317 15.8865 2.28963C16.6262 2.21918 17.3659 2.00783 18 1.72603C17.5068 2.46575 16.8728 3.0998 16.1683 3.62818Z" fill="white"/>
</svg>
