<svg width="11" height="7" viewBox="0 0 11 7" fill="none" xmlns="http://www.w3.org/2000/svg">
<path d="M10.6909 0.303426C10.4954 0.109083 10.231 0 9.95531 0C9.67964 0 9.41518 0.109083 9.21968 0.303426L5.47371 3.99723L1.77991 0.303426C1.58441 0.109083 1.31994 0 1.04428 0C0.768615 0 0.504152 0.109083 0.30865 0.303426C0.210849 0.400428 0.133222 0.515834 0.080248 0.642988C0.0272736 0.770141 0 0.906526 0 1.04427C0 1.18202 0.0272736 1.3184 0.080248 1.44556C0.133222 1.57271 0.210849 1.68812 0.30865 1.78512L4.73286 6.20933C4.82986 6.30713 4.94527 6.38476 5.07242 6.43773C5.19958 6.49071 5.33596 6.51798 5.47371 6.51798C5.61145 6.51798 5.74784 6.49071 5.87499 6.43773C6.00215 6.38476 6.11755 6.30713 6.21455 6.20933L10.6909 1.78512C10.7887 1.68812 10.8664 1.57271 10.9193 1.44556C10.9723 1.3184 10.9996 1.18202 10.9996 1.04427C10.9996 0.906526 10.9723 0.770141 10.9193 0.642988C10.8664 0.515834 10.7887 0.400428 10.6909 0.303426Z" fill="black"/>
</svg>
