<svg width="376" height="20" viewBox="0 0 376 20" fill="none" xmlns="http://www.w3.org/2000/svg">
<path d="M8.736 0C13.5267 0 17.472 3.9453 17.472 8.73603C17.472 13.562 13.5267 17.4721 8.736 17.4721C3.91005 17.4721 -3.05781e-05 13.562 -3.05781e-05 8.73603C-3.05781e-05 3.9453 3.91005 0 8.736 0ZM8.736 15.7812C12.6108 15.7812 15.7812 12.6461 15.7812 8.73603C15.7812 4.86118 12.6108 1.69084 8.736 1.69084C4.82592 1.69084 1.69081 4.86118 1.69081 8.73603C1.69081 12.6461 4.82592 15.7812 8.736 15.7812ZM12.5052 12.2234C12.1529 12.5757 10.8848 13.7029 8.84168 13.7029C5.91792 13.7029 3.87482 11.5189 3.87482 8.7008C3.87482 5.91795 6.0236 3.8044 8.80645 3.8044C10.7791 3.8044 11.9416 4.72027 12.2586 5.03731C12.329 5.10776 12.3995 5.21344 12.3995 5.31911C12.3995 5.42479 12.3643 5.49524 12.329 5.5657L11.6597 6.55202C11.5541 6.76338 11.237 6.7986 11.0609 6.6577C10.7439 6.41112 9.93368 5.8475 8.8769 5.8475C7.18606 5.8475 6.12928 7.11564 6.12928 8.7008C6.12928 10.1451 7.08038 11.6246 8.91213 11.6246C10.0394 11.6246 10.8848 10.9553 11.2018 10.6735C11.4132 10.4973 11.695 10.5326 11.8359 10.7439L12.5404 11.695C12.5756 11.7655 12.6108 11.8359 12.6108 11.9416C12.6108 12.0473 12.5756 12.1529 12.5052 12.2234ZM31.5187 8.31332L27.8552 12.2938H34.1959V13.5268H25.9178V12.3995L30.4267 7.43267C31.6244 6.09408 32.1528 5.07253 32.1528 3.98053C32.1528 2.57149 31.3074 1.79652 29.7926 1.79652C28.5597 1.79652 27.3621 2.28968 26.1644 3.27601L25.6008 2.11356C26.5871 1.16246 28.2779 0.528389 29.8279 0.528389C32.188 0.528389 33.6675 1.83175 33.6675 3.91008C33.6675 5.38957 33.0334 6.6577 31.5187 8.31332ZM36.0939 7.11564C36.0939 2.78285 37.6438 0.528389 40.6028 0.528389C43.5265 0.528389 45.0765 2.81807 45.0765 7.08041C45.0765 11.4132 43.5265 13.6677 40.6028 13.6677C37.6438 13.6677 36.0939 11.4132 36.0939 7.11564ZM43.597 7.08041C43.597 3.45214 42.6459 1.79652 40.6028 1.79652C38.5597 1.79652 37.6086 3.45214 37.6086 7.08041C37.6086 10.7087 38.5597 12.4347 40.6028 12.4347C42.6107 12.4347 43.597 10.7439 43.597 7.08041ZM52.8924 8.31332L49.2289 12.2938H55.5696V13.5268H47.2915V12.3995L51.8004 7.43267C52.9981 6.09408 53.5265 5.07253 53.5265 3.98053C53.5265 2.57149 52.681 1.79652 51.1663 1.79652C49.9334 1.79652 48.7357 2.28968 47.5381 3.27601L46.9744 2.11356C47.9608 1.16246 49.6516 0.528389 51.2015 0.528389C53.5617 0.528389 55.0412 1.83175 55.0412 3.91008C55.0412 5.38957 54.4071 6.6577 52.8924 8.31332ZM66.0627 10.0394C66.0627 12.2938 64.4423 13.6677 61.8355 13.6677C60.1799 13.6677 58.5595 13.0688 57.5028 12.0825L58.1016 10.92C59.2641 11.9064 60.5322 12.3995 61.8003 12.3995C63.6321 12.3995 64.5832 11.5893 64.5832 10.0042C64.5832 8.41899 63.5968 7.64402 61.6242 7.64402H60.1447V6.37589H61.3424C63.2446 6.37589 64.3014 5.53047 64.3014 3.9453C64.3014 2.57149 63.4207 1.79652 61.906 1.79652C60.6731 1.79652 59.4754 2.28968 58.2777 3.27601L57.7141 2.11356C58.7357 1.12723 60.3208 0.528389 61.9765 0.528389C64.2661 0.528389 65.7809 1.79652 65.7809 3.8044C65.7809 5.28389 65.0059 6.44634 63.7377 6.93951C65.2525 7.36222 66.0627 8.45422 66.0627 10.0394ZM70.2962 13.6057C70.188 14.0265 70.0498 14.4834 69.8814 14.9764C69.7131 15.4693 69.5267 15.9563 69.3223 16.4373C69.1299 16.9302 68.9376 17.3932 68.7452 17.826H67.5729C67.6931 17.3691 67.8073 16.8761 67.9155 16.3471C68.0358 15.8301 68.144 15.319 68.2402 14.814C68.3364 14.297 68.4145 13.8281 68.4746 13.4073H70.17L70.2962 13.6057ZM84.2266 13.5268H79.929V0.669292H84.2266C88.348 0.669292 90.7081 2.9942 90.7081 7.08041C90.7081 11.2018 88.348 13.5268 84.2266 13.5268ZM81.4085 1.93743V12.2586H84.1561C87.4673 12.2586 89.1582 10.5326 89.1582 7.08041C89.1582 3.6635 87.5026 1.93743 84.1561 1.93743H81.4085ZM98.5593 4.33279L98.524 5.67137C98.2775 5.60092 97.9252 5.53047 97.5729 5.53047C96.6923 5.53047 96.0582 5.81228 95.6003 6.37589C95.2128 6.90428 94.9662 7.57357 94.9662 8.34854V13.5268H93.522V7.00996C93.522 6.05886 93.4515 5.21344 93.3811 4.43847H94.7549L94.8958 6.12931C95.3537 4.8964 96.4457 4.22711 97.7491 4.22711C98.0309 4.22711 98.3127 4.26234 98.5593 4.33279ZM108.63 8.66558V8.94738H102.007C102.007 11.2371 103.064 12.4347 105.072 12.4347C106.129 12.4347 107.115 12.0825 107.996 11.378L108.489 12.4347C107.679 13.1745 106.34 13.6677 105.072 13.6677C102.219 13.6677 100.528 11.8711 100.528 8.94738C100.528 6.16454 102.289 4.22711 104.79 4.22711C107.185 4.22711 108.63 5.91795 108.63 8.66558ZM102.042 7.99628H107.326C107.185 6.27021 106.305 5.38957 104.79 5.38957C103.275 5.38957 102.324 6.34067 102.042 7.99628ZM117.291 6.02363V4.43847H118.735V13.5268H117.291V11.8711C116.763 13.0336 115.635 13.6677 114.226 13.6677C111.796 13.6677 110.211 11.8007 110.211 8.98261C110.211 6.16454 111.831 4.22711 114.226 4.22711C115.635 4.22711 116.727 4.8964 117.291 6.02363ZM117.291 8.94738C117.291 6.69292 116.305 5.46002 114.508 5.46002C112.712 5.46002 111.69 6.76338 111.69 8.98261C111.69 11.2018 112.712 12.4347 114.508 12.4347C116.305 12.4347 117.291 11.1666 117.291 8.94738ZM133.913 7.82015V13.5268H132.469V7.89061C132.469 6.19976 131.906 5.46002 130.567 5.46002C129.052 5.46002 128.136 6.55202 128.136 8.34854V13.5268H126.657V7.89061C126.657 6.23499 126.093 5.46002 124.79 5.46002C123.24 5.46002 122.289 6.55202 122.289 8.34854V13.5268H120.845V7.00996C120.845 6.05886 120.774 5.21344 120.704 4.43847H122.078L122.218 6.05886C122.747 4.8964 123.768 4.22711 125.107 4.22711C126.551 4.22711 127.432 4.79073 127.89 5.98841C128.418 4.93163 129.545 4.22711 130.919 4.22711C132.892 4.22711 133.913 5.42479 133.913 7.82015ZM136.128 7.08041C136.128 3.06466 138.418 0.528389 142.082 0.528389C143.843 0.528389 145.358 1.092 146.45 2.14878L145.886 3.31124C144.653 2.21923 143.526 1.83175 142.082 1.83175C139.264 1.83175 137.643 3.69872 137.643 7.08041C137.643 10.4621 139.264 12.3995 142.082 12.3995C143.526 12.3995 144.653 11.9768 145.886 10.92L146.45 12.0473C145.358 13.1393 143.843 13.6677 142.082 13.6677C138.418 13.6677 136.128 11.1314 136.128 7.08041ZM153.843 4.33279L153.808 5.67137C153.561 5.60092 153.209 5.53047 152.857 5.53047C151.976 5.53047 151.342 5.81228 150.884 6.37589C150.496 6.90428 150.25 7.57357 150.25 8.34854V13.5268H148.806V7.00996C148.806 6.05886 148.735 5.21344 148.665 4.43847H150.038L150.179 6.12931C150.637 4.8964 151.729 4.22711 153.033 4.22711C153.314 4.22711 153.596 4.26234 153.843 4.33279ZM162.892 6.02363V4.43847H164.336V13.5268H162.892V11.8711C162.363 13.0336 161.236 13.6677 159.827 13.6677C157.396 13.6677 155.811 11.8007 155.811 8.98261C155.811 6.16454 157.432 4.22711 159.827 4.22711C161.236 4.22711 162.328 4.8964 162.892 6.02363ZM162.892 8.94738C162.892 6.69292 161.905 5.46002 160.109 5.46002C158.312 5.46002 157.291 6.76338 157.291 8.98261C157.291 11.2018 158.312 12.4347 160.109 12.4347C161.905 12.4347 162.892 11.1666 162.892 8.94738ZM168.383 3.24078V4.43847H170.602V5.60092H168.383V13.5268H166.938V5.60092H165.177V4.43847H166.938V3.06466C166.938 1.16246 167.925 0.17613 169.651 0.17613C170.038 0.17613 170.461 0.246581 170.848 0.352259V1.58517C170.531 1.47949 170.214 1.44426 169.933 1.44426C168.982 1.44426 168.383 1.93743 168.383 3.24078ZM176.762 4.43847V5.60092H174.156V10.5678C174.156 11.9064 174.754 12.3995 175.741 12.3995C176.093 12.3995 176.41 12.3291 176.727 12.2234V13.4563C176.34 13.5972 175.917 13.6677 175.459 13.6677C173.733 13.6677 172.711 12.6461 172.711 10.7791V5.60092H170.95V4.43847H172.711V2.11356L174.156 1.62039V4.43847H176.762ZM179.752 13.5268H177.885V11.6598H179.752V13.5268ZM190.703 8.98261C190.703 11.8007 189.083 13.6677 186.652 13.6677C185.243 13.6677 184.151 12.9984 183.588 11.8359V17.4368H182.143V7.00996C182.143 6.05886 182.073 5.21344 182.002 4.43847H183.376L183.517 6.19976C184.046 4.96685 185.173 4.22711 186.652 4.22711C189.083 4.22711 190.703 6.16454 190.703 8.98261ZM189.189 8.98261C189.189 6.76338 188.132 5.46002 186.406 5.46002C184.609 5.46002 183.588 6.69292 183.588 8.94738C183.588 11.1666 184.609 12.4347 186.406 12.4347C188.167 12.4347 189.189 11.2018 189.189 8.98261ZM200.985 7.82015V13.5268H199.541V7.89061C199.541 6.23499 198.871 5.46002 197.427 5.46002C195.772 5.46002 194.644 6.58725 194.644 8.34854V13.5268H193.2V0.246581H194.644V5.91795C195.243 4.82595 196.37 4.22711 197.709 4.22711C199.893 4.22711 200.985 5.42479 200.985 7.82015ZM206.524 1.79229H207.841V19.846H206.524V1.79229ZM226.088 0.669292L231.76 13.5268H230.245L228.836 10.2155H222.108L220.699 13.5268H219.149L224.785 0.669292H226.088ZM228.308 8.98261L225.454 2.39536L222.636 8.98261H228.308ZM234.75 0.246581V13.5268H233.305V0.246581H234.75ZM238.832 0.246581V13.5268H237.387V0.246581H238.832ZM253.372 4.33279L253.336 5.67137C253.09 5.60092 252.737 5.53047 252.385 5.53047C251.505 5.53047 250.871 5.81228 250.413 6.37589C250.025 6.90428 249.779 7.57357 249.779 8.34854V13.5268H248.334V7.00996C248.334 6.05886 248.264 5.21344 248.193 4.43847H249.567L249.708 6.12931C250.166 4.8964 251.258 4.22711 252.561 4.22711C252.843 4.22711 253.125 4.26234 253.372 4.33279ZM257.489 2.25446H255.727V0.598841H257.489V2.25446ZM257.313 4.43847V13.5268H255.868V4.43847H257.313ZM266.608 6.02363V4.43847H268.052V13.4563C268.052 16.1335 266.643 17.5425 263.966 17.5425C262.592 17.5425 261.395 17.2255 260.408 16.6266L260.655 15.429C261.817 16.063 262.733 16.3448 263.966 16.3448C265.727 16.3448 266.608 15.3937 266.608 13.5972V11.4484C266.044 12.5757 264.952 13.2449 263.508 13.2449C261.078 13.2449 259.457 11.4484 259.457 8.73603C259.457 6.05886 261.078 4.22711 263.508 4.22711C264.952 4.22711 266.044 4.8964 266.608 6.02363ZM266.608 8.73603C266.608 6.69292 265.551 5.46002 263.79 5.46002C261.993 5.46002 260.937 6.69292 260.937 8.73603C260.937 10.7791 261.993 12.0473 263.79 12.0473C265.551 12.0473 266.608 10.7791 266.608 8.73603ZM277.947 7.82015V13.5268H276.502V7.89061C276.502 6.23499 275.833 5.46002 274.389 5.46002C272.733 5.46002 271.606 6.58725 271.606 8.34854V13.5268H270.162V0.246581H271.606V5.91795C272.205 4.82595 273.332 4.22711 274.671 4.22711C276.855 4.22711 277.947 5.42479 277.947 7.82015ZM285.128 4.43847V5.60092H282.522V10.5678C282.522 11.9064 283.121 12.3995 284.107 12.3995C284.459 12.3995 284.776 12.3291 285.093 12.2234V13.4563C284.706 13.5972 284.283 13.6677 283.825 13.6677C282.099 13.6677 281.077 12.6461 281.077 10.7791V5.60092H279.316V4.43847H281.077V2.11356L282.522 1.62039V4.43847H285.128ZM285.934 12.47L286.428 11.4132C287.414 12.1882 288.365 12.47 289.633 12.47C290.972 12.47 291.711 11.9768 291.711 11.0962C291.711 10.3916 291.254 10.0042 290.161 9.72235L288.612 9.37009C287.097 9.01784 286.251 8.13719 286.251 6.93951C286.251 5.35434 287.625 4.22711 289.739 4.22711C291.007 4.22711 292.169 4.64982 292.944 5.42479L292.451 6.48157C291.606 5.77705 290.69 5.42479 289.739 5.42479C288.435 5.42479 287.696 5.95318 287.696 6.83383C287.696 7.57357 288.118 7.99628 289.105 8.20764L290.619 8.59512C292.31 9.01784 293.12 9.79281 293.12 11.0609C293.12 12.6461 291.747 13.6677 289.563 13.6677C288.013 13.6677 286.815 13.2449 285.934 12.47ZM307.097 4.33279L307.061 5.67137C306.815 5.60092 306.463 5.53047 306.11 5.53047C305.23 5.53047 304.596 5.81228 304.138 6.37589C303.75 6.90428 303.504 7.57357 303.504 8.34854V13.5268H302.059V7.00996C302.059 6.05886 301.989 5.21344 301.919 4.43847H303.292L303.433 6.12931C303.891 4.8964 304.983 4.22711 306.287 4.22711C306.568 4.22711 306.85 4.26234 307.097 4.33279ZM317.167 8.66558V8.94738H310.545C310.545 11.2371 311.601 12.4347 313.609 12.4347C314.666 12.4347 315.652 12.0825 316.533 11.378L317.026 12.4347C316.216 13.1745 314.877 13.6677 313.609 13.6677C310.756 13.6677 309.065 11.8711 309.065 8.94738C309.065 6.16454 310.826 4.22711 313.327 4.22711C315.723 4.22711 317.167 5.91795 317.167 8.66558ZM310.58 7.99628H315.864C315.723 6.27021 314.842 5.38957 313.327 5.38957C311.813 5.38957 310.862 6.34067 310.58 7.99628ZM318.713 12.47L319.206 11.4132C320.192 12.1882 321.143 12.47 322.412 12.47C323.75 12.47 324.49 11.9768 324.49 11.0962C324.49 10.3916 324.032 10.0042 322.94 9.72235L321.39 9.37009C319.875 9.01784 319.03 8.13719 319.03 6.93951C319.03 5.35434 320.404 4.22711 322.517 4.22711C323.785 4.22711 324.948 4.64982 325.723 5.42479L325.23 6.48157C324.384 5.77705 323.468 5.42479 322.517 5.42479C321.214 5.42479 320.474 5.95318 320.474 6.83383C320.474 7.57357 320.897 7.99628 321.883 8.20764L323.398 8.59512C325.089 9.01784 325.899 9.79281 325.899 11.0609C325.899 12.6461 324.525 13.6677 322.341 13.6677C320.791 13.6677 319.593 13.2449 318.713 12.47ZM335.547 8.66558V8.94738H328.924C328.924 11.2371 329.981 12.4347 331.989 12.4347C333.046 12.4347 334.032 12.0825 334.913 11.378L335.406 12.4347C334.595 13.1745 333.257 13.6677 331.989 13.6677C329.135 13.6677 327.445 11.8711 327.445 8.94738C327.445 6.16454 329.206 4.22711 331.707 4.22711C334.102 4.22711 335.547 5.91795 335.547 8.66558ZM328.959 7.99628H334.243C334.102 6.27021 333.222 5.38957 331.707 5.38957C330.192 5.38957 329.241 6.34067 328.959 7.99628ZM342.693 4.33279L342.658 5.67137C342.411 5.60092 342.059 5.53047 341.707 5.53047C340.826 5.53047 340.192 5.81228 339.734 6.37589C339.347 6.90428 339.1 7.57357 339.1 8.34854V13.5268H337.656V7.00996C337.656 6.05886 337.585 5.21344 337.515 4.43847H338.889L339.03 6.12931C339.488 4.8964 340.58 4.22711 341.883 4.22711C342.165 4.22711 342.447 4.26234 342.693 4.33279ZM345.542 4.47369L348.607 11.9416L351.707 4.47369H353.151L349.241 13.5268H347.867L343.992 4.47369H345.542ZM362.165 8.66558V8.94738H355.542C355.542 11.2371 356.599 12.4347 358.607 12.4347C359.664 12.4347 360.65 12.0825 361.531 11.378L362.024 12.4347C361.214 13.1745 359.875 13.6677 358.607 13.6677C355.754 13.6677 354.063 11.8711 354.063 8.94738C354.063 6.16454 355.824 4.22711 358.325 4.22711C360.72 4.22711 362.165 5.91795 362.165 8.66558ZM355.577 7.99628H360.861C360.72 6.27021 359.84 5.38957 358.325 5.38957C356.81 5.38957 355.859 6.34067 355.577 7.99628ZM370.791 5.98841V0.246581H372.27V13.5268H370.826V11.8711C370.298 13.0336 369.17 13.6677 367.761 13.6677C365.366 13.6677 363.746 11.7302 363.746 8.91216C363.746 6.09408 365.331 4.22711 367.761 4.22711C369.17 4.22711 370.262 4.8964 370.791 5.98841ZM370.826 8.94738C370.826 6.72815 369.84 5.46002 368.043 5.46002C366.247 5.46002 365.225 6.72815 365.225 8.91216C365.225 11.1314 366.247 12.4347 368.043 12.4347C369.84 12.4347 370.826 11.1666 370.826 8.94738ZM376 13.5268H374.133V11.6598H376V13.5268Z" fill="white"/>
</svg>
