<svg width="26" height="26" viewBox="0 0 26 26" fill="none" xmlns="http://www.w3.org/2000/svg">
<g clip-path="url(#clip0_200_467)">
<path d="M23.5625 22.4135L17.4264 16.2775C18.9009 14.5073 19.6361 12.2369 19.4792 9.93843C19.3223 7.63999 18.2853 5.49053 16.584 3.93718C14.8827 2.38384 12.648 1.54621 10.3448 1.59855C8.04157 1.65089 5.84722 2.58916 4.21819 4.21818C2.58917 5.84721 1.6509 8.04156 1.59856 10.3448C1.54622 12.6479 2.38385 14.8826 3.93719 16.584C5.49053 18.2853 7.64 19.3223 9.93843 19.4792C12.2369 19.6361 14.5073 18.9009 16.2775 17.4264L22.4135 23.5625L23.5625 22.4135ZM3.25 10.5625C3.25 9.11622 3.67887 7.70242 4.48238 6.49989C5.28589 5.29735 6.42794 4.36009 7.76413 3.80662C9.10031 3.25316 10.5706 3.10835 11.9891 3.3905C13.4076 3.67266 14.7105 4.3691 15.7332 5.39178C16.7559 6.41445 17.4523 7.71741 17.7345 9.1359C18.0166 10.5544 17.8718 12.0247 17.3184 13.3609C16.7649 14.6971 15.8276 15.8391 14.6251 16.6426C13.4226 17.4461 12.0088 17.875 10.5625 17.875C8.62377 17.8728 6.76505 17.1017 5.39416 15.7308C4.02326 14.3599 3.25215 12.5012 3.25 10.5625Z" fill="white"/>
</g>
<defs>
<clipPath id="clip0_200_467">
<rect width="26" height="26" fill="white"/>
</clipPath>
</defs>
</svg>
