<svg width="119" height="96" viewBox="0 0 119 96" fill="none" xmlns="http://www.w3.org/2000/svg">
<circle cx="48" cy="48" r="48" fill="#F5E6C5" fill-opacity="0.5"/>
<g clip-path="url(#clip0_1_989)">
<path d="M118.03 74.7504C117.25 66.6366 108.287 59.8488 100.538 63.9666L97.901 55.3899L104.161 30.5619C105.76 24.1035 104.161 15.9985 99.4288 6.46071C98.2006 3.65424 93.8604 4.09034 93.1158 7.03031L88.0042 23.5368L82.9193 7.12228C82.1925 4.15264 77.8048 3.79961 76.6003 6.60311C71.8774 16.138 70.2902 24.237 71.8833 30.6895L78.1133 55.4107L75.4433 64.0734C62.1823 57.8968 52.7602 76.391 60.6278 86.4717C66.2407 94.897 78.766 92.5563 81.8929 83.2113C81.9967 83.4338 86.3814 68.826 86.5298 68.5056L89.2532 67.7253L93.7477 82.3095C94.694 85.0952 96.2604 87.5219 98.5863 89.3286C108.489 96.8076 120.219 85.5698 118.03 74.7504ZM76.1998 29.6066C74.9954 24.7146 76.096 18.4401 79.4632 10.9671L85.6932 31.0484L80.6736 47.2464L76.1998 29.6066ZM84.1505 64.554C83.4296 64.7616 82.86 65.3194 82.6375 66.0373L78.057 80.7965C76.2799 87.3676 68.4272 89.7825 64.2501 83.8699C60.9452 79.2123 61.6543 71.9529 66.4514 68.5768C68.4034 67.2091 70.9221 66.954 73.1086 67.9004C74.8025 68.6064 76.5351 71.0302 78.324 69.0841C78.5435 68.8438 78.7067 68.556 78.8016 68.2445L96.5897 10.8543C99.9599 18.3392 101.04 24.5989 99.8531 29.482L91.5464 62.4447L84.1505 64.554ZM111.764 83.7661V83.7602C107.961 89.3909 100.07 87.6435 98.1591 81.3572L93.537 66.4675C94.7415 66.0254 95.5781 64.9485 95.8125 63.6996L97.1801 68.1347C97.5391 69.3095 98.7851 69.9711 99.9599 69.6092C101.031 69.1701 101.778 68.1614 102.903 67.7817C111.877 64.4175 116.742 77.5005 111.764 83.7661Z" fill="#383063"/>
<path d="M59.6459 58.4901C62.4405 58.858 63.1376 54.6364 60.3579 54.0994C55.4391 53.0255 40.4071 53.601 43.2847 65.8474L47.263 85.9941C47.4143 86.6586 46.8863 87.3142 46.2039 87.3113H41.1606C37.8409 87.3024 35.1531 84.6086 35.1531 81.2889V16.7343C35.159 12.2932 38.7576 8.69757 43.1987 8.69164H60.0019C61.2301 8.69164 62.2269 7.69484 62.2269 6.46664C62.2269 5.23844 61.2301 4.24164 60.0019 4.24164H43.1987C36.3012 4.25054 30.712 9.83677 30.7061 16.7343V81.2889C30.712 87.068 35.3934 91.7494 41.1725 91.7583H46.2158C49.6809 91.7909 52.3687 88.4623 51.6211 85.0833L47.6457 64.9367C45.7589 57.0987 56.077 58.1608 59.6459 58.4901Z" fill="#383063"/>
<path d="M60.0019 14.1473H41.7688C38.8644 14.1592 38.8555 18.5855 41.7688 18.5973H60.0019C62.9033 18.5855 62.9152 14.1592 60.0019 14.1473Z" fill="#383063"/>
<path d="M60.0019 24.056H41.7688C38.8644 24.0679 38.8555 28.4942 41.7688 28.506H60.0019C62.9033 28.4942 62.9152 24.0679 60.0019 24.056Z" fill="#383063"/>
<path d="M60.0019 33.9647H41.7688C38.8644 33.9765 38.8555 38.4028 41.7688 38.4147H60.0019C62.9033 38.4028 62.9152 33.9765 60.0019 33.9647Z" fill="#383063"/>
<path d="M41.7688 43.8704C38.8644 43.8822 38.8555 48.3085 41.7688 48.3204H60.0019C62.9063 48.3085 62.9152 43.8822 60.0019 43.8704H41.7688Z" fill="#383063"/>
<path d="M88.0043 53.1205C84.7499 53.1353 84.7499 58.0837 88.0043 58.0985C91.2587 58.0837 91.2587 53.1353 88.0043 53.1205Z" fill="#383063"/>
</g>
<defs>
<clipPath id="clip0_1_989">
<rect width="89" height="89" fill="white" transform="translate(30 3.5)"/>
</clipPath>
</defs>
</svg>
