<svg width="16" height="16" viewBox="0 0 16 16" fill="none" xmlns="http://www.w3.org/2000/svg">
<path d="M3.57143 15.9643H0.25V5.28571H3.57143V15.9643ZM1.89286 3.85714C0.857143 3.85714 0 2.96429 0 1.89286C0 0.857143 0.857143 0 1.89286 0C2.96429 0 3.82143 0.857143 3.82143 1.89286C3.82143 2.96429 2.96429 3.85714 1.89286 3.85714ZM15.9643 15.9643H12.6786V10.7857C12.6786 9.53571 12.6429 7.96429 10.9286 7.96429C9.21429 7.96429 8.96429 9.28571 8.96429 10.6786V15.9643H5.64286V5.28571H8.82143V6.75H8.85714C9.32143 5.92857 10.3929 5.03571 12 5.03571C15.3571 5.03571 16 7.25 16 10.1071V15.9643H15.9643Z" fill="white"/>
</svg>
