<svg width="17" height="17" viewBox="0 0 17 17" fill="none" xmlns="http://www.w3.org/2000/svg">
<path d="M8.51893 4.12695C10.9042 4.12695 12.8731 6.09577 12.8731 8.48107C12.8731 10.9042 10.9042 12.8352 8.51893 12.8352C6.09577 12.8352 4.16481 10.9042 4.16481 8.48107C4.16481 6.09577 6.09577 4.12695 8.51893 4.12695ZM8.51893 11.3207C10.0713 11.3207 11.3207 10.0713 11.3207 8.48107C11.3207 6.92873 10.0713 5.67929 8.51893 5.67929C6.92873 5.67929 5.67929 6.92873 5.67929 8.48107C5.67929 10.0713 6.96659 11.3207 8.51893 11.3207ZM14.0468 3.9755C14.0468 4.54343 13.5924 4.99777 13.0245 4.99777C12.4566 4.99777 12.0022 4.54343 12.0022 3.9755C12.0022 3.40757 12.4566 2.95323 13.0245 2.95323C13.5924 2.95323 14.0468 3.40757 14.0468 3.9755ZM16.9243 4.99777C17 6.39866 17 10.6013 16.9243 12.0022C16.8486 13.3653 16.5457 14.539 15.5612 15.5612C14.5768 16.5457 13.3653 16.8486 12.0022 16.9243C10.6013 17 6.39866 17 4.99777 16.9243C3.63474 16.8486 2.46102 16.5457 1.43875 15.5612C0.454343 14.539 0.151448 13.3653 0.0757238 12.0022C0 10.6013 0 6.39866 0.0757238 4.99777C0.151448 3.63474 0.454343 2.42316 1.43875 1.43875C2.46102 0.454343 3.63474 0.151448 4.99777 0.0757238C6.39866 0 10.6013 0 12.0022 0.0757238C13.3653 0.151448 14.5768 0.454343 15.5612 1.43875C16.5457 2.42316 16.8486 3.63474 16.9243 4.99777ZM15.1069 13.4788C15.5612 12.3808 15.4477 9.73051 15.4477 8.48107C15.4477 7.26949 15.5612 4.61915 15.1069 3.4833C14.804 2.76392 14.2361 2.15813 13.5167 1.8931C12.3808 1.43875 9.73051 1.55234 8.51893 1.55234C7.26949 1.55234 4.61915 1.43875 3.52116 1.8931C2.76392 2.19599 2.19599 2.76392 1.8931 3.4833C1.43875 4.61915 1.55234 7.26949 1.55234 8.48107C1.55234 9.73051 1.43875 12.3808 1.8931 13.4788C2.19599 14.2361 2.76392 14.804 3.52116 15.1069C4.61915 15.5612 7.26949 15.4477 8.51893 15.4477C9.73051 15.4477 12.3808 15.5612 13.5167 15.1069C14.2361 14.804 14.8419 14.2361 15.1069 13.4788Z" fill="white"/>
</svg>
