<svg width="63" height="63" viewBox="0 0 63 63" fill="none" xmlns="http://www.w3.org/2000/svg">
<g clip-path="url(#clip0_260_746)">
<path d="M60.5075 34.7062C61.0752 33.9763 61.3509 33.0354 61.0995 32.0758L53.6462 3.82521C53.2137 2.19233 51.5348 1.21377 49.9047 1.64628L2.27893 14.2035C0.654187 14.6334 -0.327124 16.3177 0.0999906 17.9478L7.55331 46.1956C7.98043 47.8258 9.66733 48.8044 11.2976 48.3773L28.1262 43.9384V53.3976C28.1262 58.6881 36.8934 61.4565 45.5605 61.4565C54.2222 61.4565 63.0001 58.6881 63.0001 53.3977V39.0533C63 37.3311 62.0565 35.8821 60.5075 34.7062ZM55.1142 24.9685L55.8927 27.9098L46.4254 30.4105L45.6522 27.4638L55.1142 24.9685ZM49.6208 6.35832L51.0996 11.9598L36.3092 15.8635L34.8305 10.262L49.6208 6.35832ZM42.984 28.1666L43.741 31.043C40.2401 31.1998 36.8338 31.8107 34.0979 32.8542L33.5194 30.6699L42.984 28.1666ZM10.0241 40.0075L9.25099 37.0716L18.7156 34.5682L19.4941 37.5203L10.0241 40.0075ZM21.3839 33.8681L30.8431 31.3675L31.5594 34.0627C31.3296 34.2034 31.1134 34.3492 30.9025 34.498L22.157 36.8066L21.3839 33.8681ZM59.8425 53.165C59.8425 56.2495 53.4517 58.7475 45.5605 58.7475C37.6774 58.7475 31.2811 56.2469 31.2811 53.165V49.6911C31.2811 49.5748 31.3486 49.4694 31.3676 49.3586C31.819 52.2838 37.9665 54.6032 45.5605 54.6032C53.157 54.6032 59.3072 52.2837 59.756 49.3586C59.7749 49.4694 59.8425 49.575 59.8425 49.6911V53.165ZM59.8425 46.3307C59.8425 49.4127 53.4517 51.9106 45.5605 51.9106C37.6774 51.9106 31.2811 49.4127 31.2811 46.3307V42.8569C31.2811 42.7434 31.3486 42.6352 31.3676 42.5244C31.819 45.4468 37.9665 47.7718 45.5605 47.7718C53.157 47.7718 59.3072 45.4468 59.756 42.5244C59.7749 42.6352 59.8425 42.7434 59.8425 42.8569V46.3307ZM45.5604 44.6303C37.6773 44.6303 31.281 42.1324 31.281 39.0531C31.281 35.974 37.6772 33.4761 45.5604 33.4761C53.4516 33.4761 59.8424 35.974 59.8424 39.0531C59.8425 42.1324 53.4516 44.6303 45.5604 44.6303Z" fill="#010002"/>
</g>
<defs>
<clipPath id="clip0_260_746">
<rect width="63" height="63" fill="white"/>
</clipPath>
</defs>
</svg>
