<svg width="246" height="50" viewBox="0 0 246 50" fill="none" xmlns="http://www.w3.org/2000/svg">
<path fill-rule="evenodd" clip-rule="evenodd" d="M63.1027 19.116C61.1139 19.8438 60.1186 21.8365 60.7042 23.9182C61.1028 25.3352 61.8229 25.914 64.0719 26.6252C67.2914 27.6433 67.8604 28.0477 67.8604 29.3182C67.8604 30.586 66.9283 31.3382 65.3582 31.337C64.1789 31.3362 63.3926 30.8687 63.0832 29.9843L62.8557 29.3343H61.6356H60.4155L60.5241 29.8952C60.9408 32.0493 62.8162 33.353 65.4696 33.3331C68.5936 33.3098 70.7067 30.8681 69.9885 28.1112C69.5917 26.5884 68.6017 25.8175 66.1552 25.1263C64.2171 24.5786 63.3131 24.1026 62.9917 23.4604C62.6143 22.7058 62.8067 21.8214 63.4747 21.2404C63.9124 20.8597 64.1944 20.7743 65.0106 20.7749C66.2058 20.7756 66.9922 21.2016 67.3231 22.0275C67.5468 22.5854 67.572 22.5954 68.7628 22.5954C69.4296 22.5954 69.9744 22.534 69.9739 22.4588C69.9661 21.3677 68.9593 19.9001 67.789 19.2737C66.7434 18.714 64.4153 18.6357 63.1027 19.116ZM131.091 19.1202C130.542 19.3016 129.818 19.6256 129.482 19.8402C128.557 20.4312 127.442 21.774 126.919 22.9278C126.496 23.8596 126.45 24.1681 126.45 26.0603C126.45 28.0602 126.477 28.2156 127.023 29.3608C127.717 30.8181 128.812 31.9065 130.313 32.6325C133.598 34.2214 137.901 32.9217 139.398 29.8881L139.761 29.1521L138.392 29.1527C137.078 29.1532 137.009 29.1743 136.681 29.681C135.913 30.8651 134.265 31.5083 132.603 31.2728C129.899 30.8896 128.128 28.0694 128.675 25.0145C129.144 22.3887 130.646 20.9624 133.104 20.8078C134.129 20.7432 134.43 20.8014 135.272 21.2273C135.873 21.531 136.399 21.9596 136.636 22.3384C137.021 22.9518 137.03 22.9551 138.393 22.9575L139.763 22.9597L139.47 22.3678C138.015 19.4284 134.399 18.0267 131.091 19.1202ZM75.2612 26.0559V33.159H79.0497H82.8382V32.2483V31.3377H80.1951H77.5519V29.1521V26.9666H79.9308H82.3096V25.9648V24.9631H79.9308H77.5519V22.8686V20.7741H80.1951H82.8382V19.8635V18.9528H79.0497H75.2612V26.0559ZM88.1245 26.0388V33.159H89.2699H90.4152V30.336V27.5129H91.2841H92.153L93.707 30.3341L95.261 33.1555L96.6205 33.1572L97.9799 33.159L96.4044 30.4534C95.538 28.9654 94.7819 27.6209 94.7243 27.4656C94.6476 27.2591 94.7713 27.1489 95.1856 27.0547C95.497 26.984 96.0929 26.6012 96.51 26.2038C98.5158 24.2929 98.105 20.9561 95.6961 19.5903C94.7368 19.0464 94.7171 19.0435 91.4285 18.9812L88.1245 18.9188V26.0388ZM102.46 20.0911C102.686 20.7173 103.848 23.9135 105.04 27.1942L107.209 33.159L108.548 33.1557L109.887 33.1524L112.455 26.0526L115.024 18.9528H113.845H112.666L111.516 22.2767C110.883 24.1049 109.98 26.7271 109.509 28.104C109.038 29.4809 108.605 30.6079 108.546 30.6083C108.488 30.6088 107.541 27.9865 106.442 24.781L104.444 18.9528H103.246H102.048L102.46 20.0911ZM119.314 26.0559V33.159H120.459H121.604V26.0559V18.9528H120.459H119.314V26.0559ZM144.864 26.0559V33.159H148.653H152.441V32.2483V31.3377H149.798H147.155V29.1521V26.9666H149.534H151.913V25.9648V24.9631H149.534H147.155V22.8686V20.7741H149.798H152.441V19.8635V18.9528H148.653H144.864V26.0559ZM157.727 26.0559V33.159H158.87H160.012L160.059 28.403L160.106 23.647L162.133 28.4059L164.159 33.1648L165.004 33.1164L165.85 33.0679L167.83 28.4777C168.92 25.953 169.867 23.8288 169.936 23.7574C170.006 23.686 170.062 25.7721 170.062 28.3932V33.159H171.207H172.353V26.0479V18.9368L171.081 18.9903L169.808 19.0439L167.437 24.5579C166.133 27.5905 165.013 30.0083 164.948 29.9307C164.883 29.8531 163.894 27.6177 162.75 24.9631C161.607 22.3086 160.55 19.8704 160.4 19.5447C160.133 18.9623 160.11 18.9528 158.928 18.9528H157.727V26.0559ZM181.673 19.4537C181.57 19.7292 180.507 22.7821 179.311 26.238C178.115 29.694 177.081 32.6689 177.013 32.8492C176.901 33.1477 176.995 33.1719 178.08 33.1224L179.27 33.0679L179.754 31.7019L180.238 30.336L183.146 30.2861L186.055 30.2363L186.547 31.6976L187.039 33.159H188.253C188.92 33.159 189.43 33.0976 189.385 33.0224C189.319 32.9113 185.73 22.6348 184.741 19.7269L184.478 18.9528H183.169C181.903 18.9528 181.853 18.9696 181.673 19.4537ZM194.027 26.0388V33.159H195.172H196.317V30.336V27.5129H197.175H198.032L199.598 30.3341L201.163 33.1553L202.513 33.1572L203.864 33.159L202.206 30.2904C201.295 28.7126 200.548 27.3669 200.548 27.2997C200.547 27.2326 200.797 27.1206 201.104 27.0511C201.423 26.9786 202.017 26.5564 202.495 26.0621C203.185 25.3496 203.366 25.0178 203.54 24.1517C203.932 22.2002 203.212 20.5193 201.585 19.5877C200.639 19.0466 200.618 19.0435 197.331 18.9812L194.027 18.9188V26.0388ZM209.004 26.0559V33.159H210.146H211.287L211.335 30.0435L211.383 26.9281L213.99 30.0435L216.597 33.159H217.999C218.77 33.159 219.401 33.1218 219.401 33.0763C219.401 33.0308 218.092 31.4686 216.493 29.6047C214.894 27.7408 213.586 26.1574 213.586 26.0856C213.586 25.9856 217.21 21.5735 219.182 19.2715C219.44 18.971 219.375 18.9528 218.04 18.9528H216.625L214.004 22.1403L211.383 25.3276L211.335 22.1403L211.287 18.9528H210.146H209.004V26.0559ZM223.982 26.0559V33.159H227.859H231.736V32.2483V31.3377H229.004H226.273V29.1521V26.9666H228.652H231.031V25.9648V24.9631H228.652H226.273V22.8686V20.7741H229.004H231.736V19.8635V18.9528H227.859H223.982V26.0559ZM236.141 19.8635V20.7741H237.991H239.841V26.9666V33.159H240.987H242.132V26.9666V20.7741H243.982H245.832V19.8635V18.9528H240.987H236.141V19.8635ZM94.2919 21.0932C95.1347 21.5283 95.6006 22.5344 95.4476 23.5888C95.2256 25.1192 94.2318 25.6887 91.7809 25.6905L90.4152 25.6916V23.2329V20.7741L92.0452 20.7745C93.2439 20.7747 93.8383 20.859 94.2919 21.0932ZM200.495 21.2533C201.532 22.0539 201.671 23.6911 200.792 24.7702C200.238 25.4512 199.433 25.6893 197.683 25.6905L196.317 25.6916V23.2123V20.7328L198.16 20.8033C199.685 20.8617 200.088 20.9393 200.495 21.2533ZM184.329 25.1259C184.914 26.8591 185.392 28.31 185.392 28.3504C185.392 28.3906 184.401 28.4236 183.19 28.4236C181.7 28.4236 180.987 28.3586 180.987 28.2223C180.987 28.0683 182.145 24.5637 183.021 22.0685C183.07 21.929 183.145 21.8507 183.187 21.8948C183.23 21.9388 183.744 23.3928 184.329 25.1259Z" fill="#383063"/>
</svg>
