<svg width="18" height="18" viewBox="0 0 18 18" fill="none" xmlns="http://www.w3.org/2000/svg">
<path d="M17.9995 8.79001C17.9995 12.9399 15.7896 17.9998 9.12975 17.9998C4.1245 18.033 0.038519 14.0052 0 9C0.038519 3.99475 4.1245 -0.0330546 9.12975 0.0002045C11.2004 0.00788429 13.2081 0.712355 14.8296 2.00015C14.9416 2.09168 15.0105 2.22575 15.0196 2.37014C15.0202 2.51623 14.9626 2.65654 14.8596 2.76013C14.2086 3.35531 13.5878 3.98275 12.9996 4.64008C12.8286 4.82837 12.5419 4.85443 12.3397 4.70008C11.4158 4.01638 10.2885 3.66409 9.13975 3.7001C6.18511 3.7001 3.7899 6.09532 3.7899 9.05C3.7899 12.0046 6.18511 14.3999 9.13975 14.3999C12.1397 14.3999 13.4096 13.1199 14.0696 10.85H9.49974C9.22365 10.85 8.99976 10.6261 8.99976 10.35V7.70004C8.99976 7.42384 9.22365 7.20005 9.49974 7.20005H17.4995C17.7297 7.19855 17.9239 7.37115 17.9495 7.60004C17.9866 7.99553 18.0033 8.39272 17.9995 8.79001Z" fill="white"/>
</svg>
