<svg width="16" height="16" viewBox="0 0 16 16" fill="none" xmlns="http://www.w3.org/2000/svg">
<g clip-path="url(#clip0_200_461)">
<path d="M8 9C7.50555 9 7.0222 8.85338 6.61108 8.57868C6.19995 8.30397 5.87952 7.91353 5.6903 7.45671C5.50108 6.99989 5.45157 6.49723 5.54804 6.01228C5.6445 5.52732 5.8826 5.08187 6.23223 4.73223C6.58187 4.3826 7.02732 4.1445 7.51228 4.04804C7.99723 3.95157 8.4999 4.00108 8.95671 4.1903C9.41353 4.37952 9.80397 4.69995 10.0787 5.11108C10.3534 5.5222 10.5 6.00555 10.5 6.5C10.4992 7.16281 10.2356 7.79826 9.76693 8.26693C9.29826 8.73561 8.66281 8.99925 8 9ZM8 5C7.70333 5 7.41332 5.08797 7.16665 5.2528C6.91997 5.41762 6.72771 5.65189 6.61418 5.92598C6.50065 6.20007 6.47095 6.50167 6.52882 6.79264C6.5867 7.08361 6.72956 7.35088 6.93934 7.56066C7.14912 7.77044 7.41639 7.9133 7.70737 7.97118C7.99834 8.02906 8.29994 7.99935 8.57403 7.88582C8.84812 7.77229 9.08238 7.58003 9.24721 7.33336C9.41203 7.08668 9.5 6.79667 9.5 6.5C9.49956 6.10231 9.34139 5.72103 9.06018 5.43982C8.77897 5.15861 8.39769 5.00044 8 5Z" fill="#141414"/>
<path d="M8 15L3.78225 10.0257C3.7583 9.9971 3.60815 9.7999 3.60815 9.7999C2.8876 8.85084 2.49831 7.6916 2.5 6.5C2.5 5.04131 3.07946 3.64236 4.11091 2.61091C5.14236 1.57946 6.54131 1 8 1C9.45869 1 10.8576 1.57946 11.8891 2.61091C12.9205 3.64236 13.5 5.04131 13.5 6.5C13.5018 7.69111 13.1128 8.84991 12.3926 9.79865L12.3918 9.7999C12.3918 9.7999 12.2418 9.9971 12.2195 10.0236L8 15ZM4.40625 9.1975C4.40675 9.19785 4.52295 9.3516 4.54955 9.3847L8 13.4539L11.455 9.37895C11.4769 9.35135 11.5941 9.1965 11.5944 9.1961C12.183 8.42064 12.5011 7.47356 12.5 6.5C12.5 5.30653 12.0259 4.16193 11.182 3.31802C10.3381 2.47411 9.19347 2 8 2C6.80652 2 5.66193 2.47411 4.81802 3.31802C3.9741 4.16193 3.5 5.30653 3.5 6.5C3.49889 7.47409 3.81724 8.42167 4.40625 9.1975Z" fill="#141414"/>
</g>
<defs>
<clipPath id="clip0_200_461">
<rect width="16" height="16" fill="white"/>
</clipPath>
</defs>
</svg>
