<svg width="1280" height="390" viewBox="0 0 1280 390" fill="none" xmlns="http://www.w3.org/2000/svg">
<rect width="426.667" height="65" fill="#383063"/>
<rect width="426.667" height="65" transform="translate(426.667)" fill="#383063"/>
<rect width="426.667" height="65" transform="translate(853.333)" fill="#383063"/>
<rect width="320" height="65" transform="translate(0 65)" fill="#BBBBBB"/>
<rect width="320" height="65" transform="translate(320 65)" fill="#BBBBBB"/>
<rect width="320" height="65" transform="translate(640 65)" fill="#BBBBBB"/>
<rect width="320" height="65" transform="translate(960 65)" fill="#BBBBBB"/>
<rect width="320" height="65" transform="translate(0 130)" fill="#BBBBBB"/>
<rect width="320" height="65" transform="translate(320 130)" fill="#BBBBBB"/>
<rect width="320" height="65" transform="translate(640 130)" fill="#BBBBBB"/>
<rect width="320" height="65" transform="translate(960 130)" fill="#BBBBBB"/>
<rect width="320" height="65" transform="translate(0 195)" fill="#BBBBBB"/>
<rect width="320" height="65" transform="translate(320 195)" fill="#BBBBBB"/>
<rect width="320" height="65" transform="translate(640 195)" fill="#BBBBBB"/>
<rect width="320" height="65" transform="translate(960 195)" fill="#BBBBBB"/>
<rect width="320" height="65" transform="translate(0 260)" fill="#BBBBBB"/>
<rect width="320" height="65" transform="translate(320 260)" fill="#BBBBBB"/>
<rect width="320" height="65" transform="translate(640 260)" fill="#BBBBBB"/>
<rect width="320" height="65" transform="translate(960 260)" fill="#BBBBBB"/>
<rect width="320" height="65" transform="translate(0 325)" fill="#BBBBBB"/>
<rect width="320" height="65" transform="translate(320 325)" fill="#BBBBBB"/>
<rect width="320" height="65" transform="translate(640 325)" fill="#BBBBBB"/>
<rect width="320" height="65" transform="translate(960 325)" fill="#BBBBBB"/>
</svg>
