<svg width="599" height="40" viewBox="0 0 599 40" fill="none" xmlns="http://www.w3.org/2000/svg">
<path d="M598.184 27.776C598.184 19.9253 593.491 10.6667 584.104 0L578.088 3.712C582.525 10.5387 585 15.744 585.512 19.328L577.96 23.936C577.96 26.9227 578.685 29.8667 580.136 32.768C581.501 35.6693 582.909 37.9307 584.36 39.552C589.139 39.552 592.936 38.272 595.752 35.712C597.373 34.2613 598.184 31.616 598.184 27.776ZM573.224 27.776C573.224 19.9253 568.531 10.6667 559.144 0L553.128 3.712C557.565 10.5387 560.04 15.744 560.552 19.328L553 23.936C553 26.9227 553.725 29.8667 555.176 32.768C556.541 35.6693 557.949 37.9307 559.4 39.552C564.179 39.552 567.976 38.272 570.792 35.712C572.413 34.2613 573.224 31.616 573.224 27.776Z" fill="white"/>
</svg>
