<svg width="126" height="96" viewBox="0 0 126 96" fill="none" xmlns="http://www.w3.org/2000/svg">
<circle cx="48" cy="48" r="48" fill="#F6E7C6" fill-opacity="0.5"/>
<g clip-path="url(#clip0_1_932)">
<mask id="mask0_1_932" style="mask-type:luminance" maskUnits="userSpaceOnUse" x="30" y="0" width="96" height="96">
<path d="M30 7.62939e-06H126V96H30V7.62939e-06Z" fill="white"/>
</mask>
<g mask="url(#mask0_1_932)">
<path d="M89.7383 71.4548V52.4592H66.2618V71.4548C66.2618 72.4741 65.5951 73.372 64.6197 73.6675C55.6073 76.3971 40.8623 79.0594 40.8623 91.4367V92.7691C40.8623 93.7769 41.6792 94.5938 42.6871 94.5938H113.313C114.321 94.5938 115.138 93.7769 115.138 92.7691V91.4367C115.138 79.0594 100.393 76.3971 91.3804 73.6675C90.405 73.372 89.7383 72.4741 89.7383 71.4548Z" fill="#F9F9F9"/>
<path d="M91.3804 73.6676C90.4048 73.3721 89.7383 72.4741 89.7383 71.4549V52.4593H84.1133V73.5174C84.1133 74.5366 84.7798 75.4346 85.7554 75.7301C94.7676 78.4597 109.513 79.4345 109.513 91.8118V92.7691C109.513 93.7768 108.696 94.5937 107.688 94.5937H113.313C114.321 94.5937 115.138 93.7769 115.138 92.7691V91.4368C115.138 79.0595 100.393 76.3972 91.3804 73.6676Z" fill="white"/>
<path d="M106.408 34.5696V29.8138C106.408 14.1248 93.6891 1.40627 78 1.40627C62.3108 1.40627 49.5923 14.1248 49.5923 29.8138V34.5696H106.408Z" fill="white"/>
<path d="M78 1.40627C76.5225 1.40627 75.0713 1.51933 73.6545 1.73683C88.029 3.88746 100.783 16.306 100.783 31.3052V34.5696H106.408V29.8138C106.408 14.1248 93.6891 1.40627 78 1.40627Z" fill="white"/>
<path d="M74.3606 16.0418C63.9811 16.0418 55.5669 24.4561 55.5669 34.8355V44.8995C55.5669 56.1272 70.7529 64.2767 78.0001 64.2767C85.2474 64.2767 100.434 56.1272 100.434 44.8995V34.8355C100.434 24.4561 92.0193 16.0418 81.6397 16.0418H74.3606Z" fill="#F9F9F9"/>
<path d="M81.6396 16.0418H76.0146C86.394 16.0418 94.8083 24.4561 94.8083 34.8355V44.8995C94.8083 54.8226 82.9474 62.34 75.1875 63.9533C76.2077 64.1654 77.1579 64.2767 78 64.2767C85.2472 64.2767 100.433 56.1272 100.433 44.8995V34.8355C100.433 24.4561 92.019 16.0418 81.6396 16.0418Z" fill="white"/>
<path d="M65.2428 56.8056L57.8191 49.2241L56.0696 40.6536L57.5656 33.9151L48.5557 21.4773L45.7256 5.69033C45.6341 5.1807 45.1469 4.8417 44.6373 4.93301L32.9249 7.03283C32.3992 7.12714 32.0585 7.6407 32.1757 8.16158L39.8731 42.3498C40.7276 46.1451 42.9254 49.5034 46.0616 51.8058L63.2009 64.3885C63.9738 64.9561 65.0662 64.8186 65.6551 64.0619C67.3535 61.8792 67.1756 58.7794 65.2428 56.8056Z" fill="white"/>
<path d="M50.9968 35.0927L52.7121 44.6605C53.0374 46.4745 54.7714 47.6813 56.5855 47.3561C58.3993 47.0308 59.6063 45.2968 59.281 43.483L57.5657 33.915L50.9968 35.0927Z" fill="white"/>
<path d="M90.7572 56.8056L98.1809 49.2241L99.9305 40.6536L98.4344 33.9151L107.444 21.4773L110.274 5.69033C110.366 5.1807 110.853 4.8417 111.363 4.93301L123.075 7.03283C123.601 7.12714 123.942 7.6407 123.824 8.16158L116.127 42.3498C115.272 46.1451 113.075 49.5034 109.938 51.8058L92.7991 64.3885C92.0262 64.9561 90.9339 64.8186 90.3449 64.0619C88.6465 61.8792 88.8245 58.7794 90.7572 56.8056Z" fill="white"/>
<path d="M123.075 7.03283L119.012 6.30439C119.288 6.5202 119.433 6.88245 119.35 7.24901L111.653 41.4372C110.799 45.2326 108.601 48.5911 105.465 50.8932L89.5269 62.5939C89.719 63.1107 89.9905 63.6064 90.3449 64.0619C90.9339 64.8186 92.026 64.9561 92.7989 64.3885L109.938 51.8058C113.075 49.5034 115.272 46.1451 116.127 42.3498L123.824 8.16158C123.942 7.6407 123.601 7.12714 123.075 7.03283Z" fill="white"/>
<path d="M105.003 35.0927L103.288 44.6605C102.963 46.4745 101.229 47.6813 99.4147 47.3561C97.6008 47.0308 96.3939 45.2968 96.7192 43.483L98.4345 33.915L105.003 35.0927Z" fill="white"/>
<path d="M106.133 78.6713C111.19 81.2288 115.138 85.0332 115.138 91.4363V92.7694C115.138 93.7763 114.321 94.5938 113.314 94.5938H42.6864C41.6796 94.5938 40.8621 93.7763 40.8621 92.7694V91.4363C40.8621 79.0594 55.6071 76.3969 64.6202 73.6669C65.5952 73.3725 66.2627 72.4744 66.2627 71.4544V63.0844" stroke="#383063" stroke-width="3" stroke-miterlimit="10" stroke-linecap="round" stroke-linejoin="round"/>
<path d="M89.7375 63.0844V71.4544C89.7375 72.4744 90.405 73.3725 91.38 73.6669C93.9413 74.4432 96.9657 75.2138 99.9807 76.2019" stroke="#383063" stroke-width="3" stroke-miterlimit="10" stroke-linecap="round" stroke-linejoin="round"/>
<path d="M78 1.40625C91.6237 1.40625 103.007 10.995 105.767 23.7919" stroke="#383063" stroke-width="3" stroke-miterlimit="10" stroke-linecap="round" stroke-linejoin="round"/>
<path d="M56.5314 28.8825C56.2426 29.7469 56.0139 30.6375 55.8545 31.5525" stroke="#383063" stroke-width="3" stroke-miterlimit="10" stroke-linecap="round" stroke-linejoin="round"/>
<path d="M66.8176 60.5981C70.8226 62.9381 75.0639 64.2769 78.0001 64.2769C80.9383 64.2769 85.1776 62.9381 89.1826 60.6" stroke="#383063" stroke-width="3" stroke-miterlimit="10" stroke-linecap="round" stroke-linejoin="round"/>
<path d="M71.7339 16.2262C72.5926 16.1044 73.4701 16.0425 74.3608 16.0425H81.6395C90.9001 16.0425 98.5933 22.7381 100.146 31.5525" stroke="#383063" stroke-width="3" stroke-miterlimit="10" stroke-linecap="round" stroke-linejoin="round"/>
<path d="M56.5259 28.8953C59.9133 20.7658 81.8243 10.3695 94.105 6.41158C89.5279 3.25577 83.9804 1.40627 78.0001 1.40627C73.2226 1.40627 68.7205 2.58564 64.7691 4.66914" stroke="#383063" stroke-width="3" stroke-miterlimit="10" stroke-linecap="round" stroke-linejoin="round"/>
<path d="M57.3863 47.1056C58.7382 46.4869 59.5557 45.0131 59.2801 43.4831L57.5663 33.915L48.5551 21.4763L45.7257 5.69065C45.6338 5.18065 45.1463 4.84128 44.6382 4.93315L32.9251 7.03315C32.4001 7.1269 32.0588 7.64065 32.1751 8.1619L39.8738 42.3506C40.727 46.1456 42.9263 49.5038 46.0613 51.8063L63.2007 64.3894C63.9732 64.9556 65.0663 64.8188 65.6551 64.0613C67.3538 61.8788 67.1757 58.7794 65.2426 56.805L57.8195 49.2244L57.3863 47.1056ZM57.3863 47.1056C57.137 47.22 56.8688 47.3063 56.5857 47.3569C54.7707 47.6813 53.0382 46.4738 52.712 44.6606L50.9963 35.0925" stroke="#383063" stroke-width="3" stroke-miterlimit="10" stroke-linecap="round" stroke-linejoin="round"/>
<path d="M105.003 35.0927L103.288 44.6605C102.963 46.4745 101.229 47.6813 99.4147 47.3562C97.6008 47.0308 96.3939 45.2968 96.7192 43.483L98.4344 33.915L107.445 21.4763L110.274 5.69065C110.366 5.18065 110.854 4.84128 111.362 4.93316L123.075 7.03315C123.6 7.1269 123.941 7.64066 123.825 8.16191L116.126 42.3507C115.273 46.1457 113.074 49.5038 109.939 51.8063L92.7995 64.3894C92.027 64.9556 90.9339 64.8188 90.3451 64.0613C88.6464 61.8788 88.8245 58.7794 90.7576 56.805L98.1807 49.2244L98.6139 47.1057" stroke="#383063" stroke-width="3" stroke-miterlimit="10" stroke-linecap="round" stroke-linejoin="round"/>
<path d="M64.6658 36.7286C66.483 35.6135 68.3003 35.6135 70.1177 36.7286" stroke="#383063" stroke-width="3" stroke-miterlimit="10" stroke-linecap="round" stroke-linejoin="round"/>
<path d="M85.8823 36.7286C87.6996 35.6135 89.5168 35.6135 91.3343 36.7286" stroke="#383063" stroke-width="3" stroke-miterlimit="10" stroke-linecap="round" stroke-linejoin="round"/>
<path d="M72.9661 51.2125C76.1781 52.6024 79.8218 52.6024 83.0339 51.2125" stroke="#383063" stroke-width="3" stroke-miterlimit="10" stroke-linecap="round" stroke-linejoin="round"/>
<path d="M50.2332 23.7919C51.5438 17.7207 54.7932 12.3713 59.3044 8.42631" stroke="#383063" stroke-width="3" stroke-miterlimit="10" stroke-linecap="round" stroke-linejoin="round"/>
</g>
</g>
<defs>
<clipPath id="clip0_1_932">
<rect width="96" height="96" fill="white" transform="translate(30)"/>
</clipPath>
</defs>
</svg>
